<?xml version="1.0" encoding="UTF-8"?> <svg xmlns="http://www.w3.org/2000/svg" width="271" height="57" viewBox="0 0 271 57" fill="none"><path d="M10.1801 17.7566V55.9565H0V17.7566H10.1801Z" fill="#333333"></path><path d="M15.353 55.9565V17.7566H27.3311L33.3466 29.4899C35.4278 33.2881 37.6194 38.3879 39.3092 42.8659H39.4772C38.9155 37.8217 38.6899 32.4946 38.6899 26.7683V17.7566H47.9699V55.9565H37.2833L30.8718 43.2603C28.7354 39.1791 26.2606 34.0793 24.4603 29.4319H24.29C24.5156 34.5897 24.6284 40.3717 24.6284 46.548V55.9565H15.353Z" fill="#333333"></path><path d="M53.2049 17.7566H77.5548V26.0885H63.3827V33.1744H76.7099V41.4482H63.3827V55.9565H53.2026V17.7566H53.2049Z" fill="#333333"></path><path d="M92.1802 17.7566V39.4088C92.1802 45.1907 94.1486 48.4761 98.1428 48.4761C102.19 48.4761 104.158 45.4715 104.158 39.4088V17.7566H114.338V38.8403C114.338 50.6293 108.489 56.5806 97.8596 56.5806C87.4562 56.5806 82.0024 50.8567 82.0024 38.5573V17.7566H92.1802Z" fill="#333333"></path><path d="M120.132 45.7548C122.439 46.945 126.208 48.1353 129.974 48.1353C133.46 48.1353 135.149 46.945 135.149 45.0169C135.149 43.1468 133.462 42.0703 129.187 40.5969C122.775 38.3301 118.56 34.7593 118.56 29.0934C118.56 22.3485 124.182 17.135 133.743 17.135C138.296 17.135 141.503 17.9865 144.033 19.1188L141.897 27.279C140.267 26.5411 137.454 25.4646 133.63 25.4646C130.538 25.4646 128.848 26.5991 128.848 28.2975C128.848 30.2256 130.874 31.0191 135.654 32.8335C142.459 35.3277 145.553 39.0122 145.553 44.3371C145.553 50.9126 140.435 56.5785 129.357 56.5785C124.801 56.5785 120.36 55.3326 118.222 54.198L120.132 45.7548Z" fill="#333333"></path><path d="M172.998 40.541H159.39V47.5666H174.63V55.9542H149.212V17.7566H173.843V26.0885H159.39V32.2672H172.998V40.541Z" fill="#333333"></path><path d="M181.166 46.0495C181.166 44.43 181.138 43.0704 181.058 41.8546H183.949L184.085 43.9382H184.168C184.822 42.8384 186.023 41.5367 188.261 41.5367C190.006 41.5367 191.371 42.5785 191.944 44.14H192C192.462 43.3581 193.01 42.7804 193.637 42.3767C194.373 41.8268 195.218 41.5391 196.309 41.5391C198.519 41.5391 200.757 43.1307 200.757 47.6412V55.9429H197.483V48.1633C197.483 45.8198 196.719 44.4324 195.11 44.4324C193.963 44.4324 193.119 45.3001 192.764 46.3117C192.681 46.6598 192.601 47.0936 192.601 47.4974V55.9429H189.327V47.7874C189.327 45.8198 188.59 44.4324 187.036 44.4324C185.782 44.4324 184.934 45.4741 184.635 46.4579C184.499 46.8059 184.444 47.2097 184.444 47.6157V55.9452H181.17V46.0495H181.166Z" fill="#333333"></path><path d="M206.337 49.8962C206.42 52.4415 208.301 53.5412 210.431 53.5412C211.987 53.5412 213.103 53.3092 214.114 52.9055L214.604 55.3649C213.458 55.8568 211.876 56.2327 209.966 56.2327C205.654 56.2327 203.117 53.4276 203.117 49.1166C203.117 45.2117 205.354 41.5388 209.611 41.5388C213.923 41.5388 215.341 45.2999 215.341 48.3927C215.341 49.0586 215.286 49.5783 215.233 49.8962H206.337ZM212.176 47.4089C212.203 46.1073 211.658 43.9681 209.42 43.9681C207.346 43.9681 206.473 45.9635 206.337 47.4089H212.176Z" fill="#333333"></path><path d="M230.291 36.2583V51.9777C230.291 53.4232 230.346 54.9847 230.399 55.9406H227.397L227.261 53.7132H227.206C226.414 55.2747 224.805 56.2585 222.869 56.2585C219.703 56.2585 217.194 53.3953 217.194 49.0566C217.166 44.3419 219.95 41.5368 223.143 41.5368C224.971 41.5368 226.281 42.3465 226.881 43.3883H226.937V36.2583H230.291ZM226.937 47.7271C226.937 47.4371 226.909 47.0913 226.854 46.8013C226.555 45.4138 225.489 44.2839 223.962 44.2839C221.808 44.2839 220.606 46.3094 220.606 48.9405C220.606 51.5137 221.805 53.3953 223.935 53.3953C225.3 53.3953 226.499 52.4116 226.826 50.8779C226.909 50.5601 226.934 50.212 226.934 49.8361V47.7271H226.937Z" fill="#333333"></path><path d="M233.894 55.9403V42.7082H237.278V55.9403H233.894ZM233.894 39.6501V36.3113H237.278V39.6501H233.894Z" fill="#333333"></path><path d="M248.354 55.9406L248.135 54.3791H248.052C247.233 55.4789 245.842 56.2585 244.123 56.2585C241.45 56.2585 239.949 54.2051 239.949 52.0658C239.949 48.509 242.923 46.7154 247.834 46.7433V46.5113C247.834 45.5855 247.479 44.0518 245.133 44.0518C243.823 44.0518 242.46 44.4857 241.56 45.0936L240.906 42.7804C241.889 42.1446 243.607 41.5367 245.709 41.5367C249.965 41.5367 251.192 44.3999 251.192 47.4672V52.5577C251.192 53.8315 251.248 55.0752 251.383 55.9429H248.354V55.9406ZM247.916 49.0589C245.543 49.0009 243.278 49.5507 243.278 51.69C243.278 53.0775 244.123 53.7155 245.188 53.7155C246.526 53.7155 247.507 52.7897 247.808 51.7781C247.891 51.5183 247.916 51.2282 247.916 50.9962V49.0589Z" fill="#333333"></path><path d="M182.245 31.0958H201.378L221.791 0.000427246H202.658L182.245 31.0958Z" fill="#1C3C70"></path><path d="M206.583 31.0954H225.716L246.127 0H226.996L206.583 31.0954Z" fill="#005EAB"></path><path d="M230.919 31.0954H250.053L270.466 0H251.333L230.919 31.0954Z" fill="#0097DD"></path></svg> 